Raleway-Medium.ufo
<glyph name="dollar" format="1">
  <advance width="622"/>
  <unicode hex="0024"/>
  <outline>
    <contour>
      <point x="291" y="-107" type="line"/>
      <point x="335" y="-107" type="line"/>
      <point x="335" y="38" type="line"/>
      <point x="291" y="39" type="line"/>
    </contour>
    <contour>
      <point x="329" y="48" type="line"/>
      <point x="329" y="666" type="line"/>
      <point x="296" y="659" type="line"/>
      <point x="296" y="50" type="line"/>
    </contour>
    <contour>
      <point x="291" y="665" type="line"/>
      <point x="335" y="672" type="line"/>
      <point x="335" y="815" type="line"/>
      <point x="291" y="815" type="line"/>
    </contour>
    <component base="S" xOffset="6"/>
  </outline>
</glyph>
<glyph name="less" format="1">
  <advance width="510"/>
  <unicode hex="003C"/>
  <outline>
    <contour>
      <point x="33" y="234" type="line"/>
      <point x="453" y="-16" type="line"/>
      <point x="453" y="82" type="line"/>
      <point x="161" y="259" type="line"/>
      <point x="453" y="439" type="line"/>
      <point x="453" y="533" type="line"/>
      <point x="33" y="280" type="line"/>
    </contour>
  </outline>
</glyph>
<glyph name="F" format="1">
  <advance width="583"/>
  <unicode hex="0046"/>
  <outline>
    <contour>
      <point x="175" y="0" type="line"/>
      <point x="175" y="318" type="line"/>
      <point x="494" y="318" type="line"/>
      <point x="494" y="393" type="line"/>
      <point x="175" y="393" type="line"/>
      <point x="175" y="630" type="line"/>
      <point x="554" y="630" type="line"/>
      <point x="554" y="710" type="line"/>
      <point x="85" y="710" type="line"/>
      <point x="85" y="0" type="line"/>
    </contour>
  </outline>
</glyph>
<glyph name="J" format="1">
  <advance width="485"/>
  <unicode hex="004A"/>
  <outline>
    <contour>
      <point x="12" y="33" type="line"/>
      <point x="54" y="4"/>
      <point x="105" y="-11"/>
      <point x="166" y="-11" type="curve" smooth="yes"/>
      <point x="381" y="-11"/>
      <point x="408" y="133"/>
      <point x="408" y="349" type="curve" smooth="yes"/>
      <point x="408" y="710" type="line"/>
      <point x="318" y="710" type="line"/>
      <point x="318" y="349" type="line" smooth="yes"/>
      <point x="318" y="168"/>
      <point x="301" y="70"/>
      <point x="166" y="70" type="curve" smooth="yes"/>
      <point x="109" y="70"/>
      <point x="61" y="88"/>
      <point x="35" y="106" type="curve"/>
    </contour>
    <contour>
      <point x="364" y="708" type="move" name="top"/>
    </contour>
  </outline>
</glyph>
<glyph name="h" format="1">
  <advance width="590"/>
  <unicode hex="0068"/>
  <outline>
    <contour>
      <point x="524" y="312" type="line"/>
      <point x="524" y="436"/>
      <point x="483" y="531"/>
      <point x="359" y="531" type="curve" smooth="yes"/>
      <point x="276" y="531"/>
      <point x="200" y="485"/>
      <point x="159" y="410" type="curve"/>
      <point x="159" y="730" type="line"/>
      <point x="71" y="730" type="line"/>
      <point x="71" y="0" type="line"/>
      <point x="159" y="0" type="line"/>
      <point x="159" y="315" type="line"/>
      <point x="182" y="394"/>
      <point x="257" y="452"/>
      <point x="326" y="452" type="curve" smooth="yes"/>
      <point x="397" y="452"/>
      <point x="436" y="399"/>
      <point x="436" y="292" type="curve" smooth="yes"/>
      <point x="436" y="0" type="line"/>
      <point x="524" y="0" type="line"/>
    </contour>
    <contour>
      <point x="335" y="521" type="move" name="top"/>
    </contour>
  </outline>
</glyph>
<glyph name="copyright" format="1">
  <advance width="836"/>
  <unicode hex="00A9"/>
  <outline>
    <contour>
      <point x="416" y="-7" type="curve" smooth="yes"/>
      <point x="630" y="-7"/>
      <point x="789" y="148"/>
      <point x="789" y="355" type="curve" smooth="yes"/>
      <point x="789" y="561"/>
      <point x="630" y="715"/>
      <point x="416" y="715" type="curve" smooth="yes"/>
      <point x="204" y="715"/>
      <point x="47" y="561"/>
      <point x="47" y="355" type="curve" smooth="yes"/>
      <point x="47" y="148"/>
      <point x="204" y="-7"/>
    </contour>
    <contour>
      <point x="416" y="31" type="curve" smooth="yes"/>
      <point x="227" y="31"/>
      <point x="87" y="171"/>
      <point x="87" y="354" type="curve" smooth="yes"/>
      <point x="87" y="538"/>
      <point x="228" y="677"/>
      <point x="416" y="677" type="curve" smooth="yes"/>
      <point x="607" y="677"/>
      <point x="748" y="538"/>
      <point x="748" y="353" type="curve" smooth="yes"/>
      <point x="748" y="162"/>
      <point x="603" y="31"/>
    </contour>
    <contour>
      <point x="424" y="121" type="curve" smooth="yes"/>
      <point x="529" y="121"/>
      <point x="604" y="187"/>
      <point x="626" y="241" type="curve"/>
      <point x="541" y="267" type="line"/>
      <point x="520" y="223"/>
      <point x="467" y="197"/>
      <point x="421" y="197" type="curve" smooth="yes"/>
      <point x="354" y="197"/>
      <point x="275" y="254"/>
      <point x="275" y="355" type="curve" smooth="yes"/>
      <point x="275" y="434"/>
      <point x="324" y="514"/>
      <point x="419" y="514" type="curve" smooth="yes"/>
      <point x="456" y="514"/>
      <point x="510" y="501"/>
      <point x="535" y="447" type="curve"/>
      <point x="620" y="474" type="line"/>
      <point x="588" y="548"/>
      <point x="512" y="590"/>
      <point x="419" y="590" type="curve" smooth="yes"/>
      <point x="261" y="590"/>
      <point x="185" y="470"/>
      <point x="185" y="355" type="curve" smooth="yes"/>
      <point x="185" y="216"/>
      <point x="294" y="121"/>
    </contour>
  </outline>
</glyph>
<glyph name="degree" format="1">
  <advance width="272"/>
  <unicode hex="00B0"/>
  <outline>
    <contour>
      <point x="47" y="637" type="curve"/>
      <point x="47" y="585"/>
      <point x="86" y="546"/>
      <point x="136" y="546" type="curve" smooth="yes"/>
      <point x="187" y="546"/>
      <point x="225" y="584"/>
      <point x="225" y="637" type="curve" smooth="yes"/>
      <point x="225" y="686"/>
      <point x="187" y="724"/>
      <point x="136" y="724" type="curve" smooth="yes"/>
      <point x="86" y="724"/>
      <point x="47" y="686"/>
    </contour>
    <contour>
      <point x="106" y="665" type="curve"/>
      <point x="114" y="673"/>
      <point x="124" y="677"/>
      <point x="136" y="677" type="curve" smooth="yes"/>
      <point x="147" y="677"/>
      <point x="159" y="673"/>
      <point x="166" y="665" type="curve" smooth="yes"/>
      <point x="173" y="657"/>
      <point x="178" y="647"/>
      <point x="178" y="635" type="curve" smooth="yes"/>
      <point x="178" y="624"/>
      <point x="173" y="613"/>
      <point x="166" y="606" type="curve" smooth="yes"/>
      <point x="159" y="598"/>
      <point x="147" y="593"/>
      <point x="136" y="593" type="curve" smooth="yes"/>
      <point x="124" y="593"/>
      <point x="114" y="598"/>
      <point x="106" y="606" type="curve" smooth="yes"/>
      <point x="99" y="613"/>
      <point x="94" y="624"/>
      <point x="94" y="635" type="curve" smooth="yes"/>
      <point x="94" y="647"/>
      <point x="99" y="657"/>
    </contour>
  </outline>
</glyph>
<glyph name="Dcroat" format="1">
  <advance width="722"/>
  <unicode hex="0110"/>
  <outline>
    <contour>
      <point x="342" y="323" type="line"/>
      <point x="342" y="391" type="line"/>
      <point x="34" y="391" type="line"/>
      <point x="34" y="323" type="line"/>
    </contour>
    <component base="D" xOffset="6"/>
  </outline>
</glyph>
<glyph name="OE" format="1">
  <advance width="1131"/>
  <unicode hex="0152"/>
  <outline>
    <contour>
      <point x="710" y="80" type="line"/>
      <point x="710" y="322" type="line"/>
      <point x="1031" y="322" type="line"/>
      <point x="1031" y="402" type="line"/>
      <point x="710" y="402" type="line"/>
      <point x="710" y="630" type="line"/>
      <point x="1085" y="630" type="line"/>
      <point x="1085" y="710" type="line"/>
      <point x="620" y="710" type="line"/>
      <point x="620" y="553" type="line"/>
      <point x="576" y="643"/>
      <point x="487" y="715"/>
      <point x="375" y="715" type="curve" smooth="yes"/>
      <point x="183" y="715"/>
      <point x="39" y="544"/>
      <point x="39" y="355" type="curve" smooth="yes"/>
      <point x="39" y="173"/>
      <point x="175" y="-5"/>
      <point x="374" y="-5" type="curve" smooth="yes"/>
      <point x="483" y="-5"/>
      <point x="575" y="65"/>
      <point x="620" y="157" type="curve"/>
      <point x="620" y="0" type="line"/>
      <point x="1094" y="0" type="line"/>
      <point x="1094" y="80" type="line"/>
    </contour>
    <contour>
      <point x="374" y="76" type="curve" smooth="yes"/>
      <point x="227" y="76"/>
      <point x="130" y="210"/>
      <point x="130" y="355" type="curve" smooth="yes"/>
      <point x="130" y="493"/>
      <point x="223" y="634"/>
      <point x="374" y="634" type="curve" smooth="yes"/>
      <point x="518" y="634"/>
      <point x="617" y="500"/>
      <point x="617" y="356" type="curve" smooth="yes"/>
      <point x="617" y="217"/>
      <point x="525" y="76"/>
    </contour>
  </outline>
</glyph>
<glyph name="ogonek" format="1">
  <advance width="255"/>
  <unicode hex="02DB"/>
  <outline>
    <contour>
      <point x="142" y="-181" type="curve"/>
      <point x="164" y="-135" type="line"/>
      <point x="127" y="-131"/>
      <point x="109" y="-116"/>
      <point x="109" y="-92" type="curve" smooth="yes"/>
      <point x="109" y="-63"/>
      <point x="133" y="-36"/>
      <point x="191" y="0" type="curve"/>
      <point x="165" y="18" type="line"/>
      <point x="91" y="-24"/>
      <point x="58" y="-64"/>
      <point x="58" y="-104" type="curve" smooth="yes"/>
      <point x="58" y="-141"/>
      <point x="87" y="-171"/>
    </contour>
    <contour>
      <point x="167" y="0" type="move" name="_bottom"/>
    </contour>
  </outline>
</glyph>
<glyph name="uni0311" format="1">
  <advance width="296"/>
  <unicode hex="0311"/>
  <outline>
    <contour>
      <point x="148" y="687" type="curve" smooth="yes"/>
      <point x="177" y="687"/>
      <point x="202" y="658"/>
      <point x="206" y="619" type="curve"/>
      <point x="256" y="619" type="line"/>
      <point x="256" y="682"/>
      <point x="209" y="730"/>
      <point x="148" y="730" type="curve" smooth="yes"/>
      <point x="87" y="730"/>
      <point x="40" y="682"/>
      <point x="40" y="619" type="curve"/>
      <point x="91" y="619" type="line"/>
      <point x="91" y="655"/>
      <point x="118" y="687"/>
    </contour>
    <contour>
      <point x="148" y="522" type="move" name="_top"/>
    </contour>
  </outline>
</glyph>
<glyph name="uni0418" format="1">
  <advance width="749"/>
  <unicode hex="0418"/>
  <outline>
    <contour>
      <point x="177" y="710" type="line"/>
      <point x="87" y="710" type="line"/>
      <point x="87" y="0" type="line"/>
      <point x="168" y="0" type="line"/>
      <point x="572" y="563" type="line"/>
      <point x="572" y="0" type="line"/>
      <point x="662" y="0" type="line"/>
      <point x="662" y="710" type="line"/>
      <point x="588" y="710" type="line"/>
      <point x="177" y="137" type="line"/>
    </contour>
  </outline>
</glyph>
<glyph name="uni0437" format="1">
  <advance width="410"/>
  <unicode hex="0437"/>
  <outline>
    <contour>
      <point x="85" y="418" type="line"/>
      <point x="118" y="448"/>
      <point x="149" y="462"/>
      <point x="185" y="462" type="curve" smooth="yes"/>
      <point x="233" y="462"/>
      <point x="263" y="437"/>
      <point x="263" y="397" type="curve" smooth="yes"/>
      <point x="263" y="349"/>
      <point x="222" y="319"/>
      <point x="157" y="319" type="curve" smooth="yes"/>
      <point x="122" y="319" type="line"/>
      <point x="122" y="252" type="line"/>
      <point x="157" y="252" type="line" smooth="yes"/>
      <point x="243" y="252"/>
      <point x="290" y="217"/>
      <point x="290" y="153" type="curve" smooth="yes"/>
      <point x="290" y="97"/>
      <point x="254" y="66"/>
      <point x="190" y="66" type="curve" smooth="yes"/>
      <point x="140" y="66"/>
      <point x="104" y="85"/>
      <point x="73" y="127" type="curve"/>
      <point x="26" y="66" type="line"/>
      <point x="67" y="15"/>
      <point x="119" y="-10"/>
      <point x="187" y="-10" type="curve" smooth="yes"/>
      <point x="299" y="-10"/>
      <point x="375" y="56"/>
      <point x="375" y="153" type="curve" smooth="yes"/>
      <point x="375" y="229"/>
      <point x="329" y="281"/>
      <point x="253" y="290" type="curve"/>
      <point x="308" y="297"/>
      <point x="344" y="343"/>
      <point x="344" y="404" type="curve" smooth="yes"/>
      <point x="344" y="481"/>
      <point x="283" y="531"/>
      <point x="191" y="531" type="curve" smooth="yes"/>
      <point x="132" y="531"/>
      <point x="81" y="510"/>
      <point x="42" y="468" type="curve"/>
    </contour>
  </outline>
</glyph>
<glyph name="uni0443" format="1">
  <advance width="545"/>
  <unicode hex="0443"/>
  <outline>
    <contour>
      <point x="70" y="-196" type="line"/>
      <point x="89" y="-216"/>
      <point x="110" y="-223"/>
      <point x="145" y="-223" type="curve" smooth="yes"/>
      <point x="212" y="-223"/>
      <point x="254" y="-189"/>
      <point x="299" y="-72" type="curve" smooth="yes"/>
      <point x="527" y="522" type="line"/>
      <point x="443" y="522" type="line"/>
      <point x="281" y="79" type="line"/>
      <point x="103" y="522" type="line"/>
      <point x="12" y="522" type="line"/>
      <point x="233" y="0" type="line"/>
      <point x="203" y="-109"/>
      <point x="173" y="-146"/>
      <point x="138" y="-146" type="curve" smooth="yes"/>
      <point x="114" y="-146"/>
      <point x="93" y="-139"/>
      <point x="70" y="-119" type="curve"/>
    </contour>
    <contour>
      <point x="281" y="522" type="move" name="top"/>
    </contour>
  </outline>
</glyph>
<glyph name="uni045A" format="1">
  <advance width="800"/>
  <unicode hex="045A"/>
  <outline>
    <contour>
      <point x="73" y="0" type="line"/>
      <point x="159" y="0" type="line"/>
      <point x="159" y="246" type="line"/>
      <point x="391" y="246" type="line"/>
      <point x="391" y="0" type="line"/>
      <point x="615" y="0" type="line" smooth="yes"/>
      <point x="691" y="0"/>
      <point x="768" y="49"/>
      <point x="768" y="159" type="curve" smooth="yes"/>
      <point x="768" y="269"/>
      <point x="691" y="322"/>
      <point x="616" y="322" type="curve" smooth="yes"/>
      <point x="477" y="322" type="line"/>
      <point x="477" y="522" type="line"/>
      <point x="391" y="522" type="line"/>
      <point x="391" y="322" type="line"/>
      <point x="159" y="322" type="line"/>
      <point x="159" y="522" type="line"/>
      <point x="73" y="522" type="line"/>
    </contour>
    <contour>
      <point x="477" y="74" type="line"/>
      <point x="477" y="248" type="line"/>
      <point x="616" y="248" type="line" smooth="yes"/>
      <point x="651" y="248"/>
      <point x="681" y="217"/>
      <point x="681" y="159" type="curve" smooth="yes"/>
      <point x="681" y="103"/>
      <point x="654" y="74"/>
      <point x="615" y="74" type="curve" smooth="yes"/>
    </contour>
  </outline>
</glyph>
<glyph name="quotedblbase" format="1">
  <advance width="349"/>
  <unicode hex="201E"/>
  <outline>
    <contour>
      <point x="117" y="-115" type="line"/>
      <point x="147" y="0" type="line"/>
      <point x="147" y="114" type="line"/>
      <point x="64" y="114" type="line"/>
      <point x="64" y="0" type="line"/>
      <point x="94" y="0" type="line"/>
      <point x="74" y="-115" type="line"/>
    </contour>
    <contour>
      <point x="255" y="-115" type="line"/>
      <point x="285" y="0" type="line"/>
      <point x="285" y="114" type="line"/>
      <point x="202" y="114" type="line"/>
      <point x="202" y="0" type="line"/>
      <point x="232" y="0" type="line"/>
      <point x="212" y="-115" type="line"/>
    </contour>
  </outline>
</glyph>
<glyph name="dagger" format="1">
  <advance width="421"/>
  <unicode hex="2020"/>
  <outline>
    <contour>
      <point x="253" y="-130" type="line"/>
      <point x="253" y="231" type="line"/>
      <point x="384" y="231" type="line"/>
      <point x="384" y="311" type="line"/>
      <point x="253" y="311" type="line"/>
      <point x="253" y="775" type="line"/>
      <point x="169" y="775" type="line"/>
      <point x="169" y="311" type="line"/>
      <point x="37" y="311" type="line"/>
      <point x="37" y="231" type="line"/>
      <point x="169" y="231" type="line"/>
      <point x="169" y="-130" type="line"/>
    </contour>
  </outline>
</glyph>
<glyph name="minus" format="1">
  <advance width="537"/>
  <unicode hex="2212"/>
  <outline>
    <contour>
      <point x="470" y="269" type="line"/>
      <point x="470" y="341" type="line"/>
      <point x="67" y="341" type="line"/>
      <point x="67" y="269" type="line"/>
    </contour>
  </outline>
</glyph>
<glyph name="uni2219" format="1">
  <advance width="202"/>
  <unicode hex="2219"/>
  <outline>
    <contour>
      <point x="138" y="245" type="line"/>
      <point x="138" y="369" type="line"/>
      <point x="64" y="369" type="line"/>
      <point x="64" y="245" type="line"/>
    </contour>
  </outline>
</glyph>
<glyph name="W.sc" format="1">
  <advance width="908"/>
  <outline>
    <contour>
      <point x="403" y="305" type="line"/>
      <point x="306" y="97" type="line"/>
      <point x="100" y="551" type="line"/>
      <point x="13" y="551" type="line"/>
      <point x="265" y="0" type="line"/>
      <point x="335" y="0" type="line"/>
      <point x="454" y="252" type="line"/>
      <point x="573" y="0" type="line"/>
      <point x="642" y="0" type="line"/>
      <point x="895" y="551" type="line"/>
      <point x="807" y="551" type="line"/>
      <point x="602" y="97" type="line"/>
      <point x="503" y="305" type="line"/>
      <point x="608" y="548" type="line"/>
      <point x="533" y="548" type="line"/>
      <point x="453" y="359" type="line"/>
      <point x="374" y="548" type="line"/>
      <point x="299" y="548" type="line"/>
    </contour>
    <contour>
      <point x="502" y="707" type="move" name="top"/>
    </contour>
  </outline>
</glyph>
<glyph name="two.numerator" format="1">
  <advance width="396"/>
  <outline>
    <contour>
      <point x="352" y="320" type="line"/>
      <point x="352" y="374" type="line"/>
      <point x="121" y="374" type="line"/>
      <point x="121" y="409"/>
      <point x="139" y="453"/>
      <point x="221" y="480" type="curve" smooth="yes"/>
      <point x="275" y="497"/>
      <point x="359" y="524"/>
      <point x="359" y="608" type="curve" smooth="yes"/>
      <point x="359" y="680"/>
      <point x="308" y="731"/>
      <point x="208" y="731" type="curve" smooth="yes"/>
      <point x="109" y="731"/>
      <point x="51" y="681"/>
      <point x="38" y="663" type="curve"/>
      <point x="74" y="624" type="line"/>
      <point x="95" y="646"/>
      <point x="136" y="677"/>
      <point x="200" y="677" type="curve" smooth="yes"/>
      <point x="264" y="677"/>
      <point x="297" y="648"/>
      <point x="297" y="609" type="curve" smooth="yes"/>
      <point x="297" y="550"/>
      <point x="223" y="532"/>
      <point x="161" y="508" type="curve" smooth="yes"/>
      <point x="73" y="473"/>
      <point x="34" y="425"/>
      <point x="34" y="320" type="curve"/>
    </contour>
  </outline>
</glyph>
